<?xml version="1.0" encoding="iso-8859-1"?>
<!-- Generator: Adobe Illustrator 19.0.0, SVG Export Plug-In . SVG Version: 6.00 Build 0)  -->
<svg version="1.1" id="Layer_1" xmlns="http://www.w3.org/2000/svg" xmlns:xlink="http://www.w3.org/1999/xlink" x="0px" y="0px"
	 viewBox="0 0 512 512" style="enable-background:new 0 0 512 512;" xml:space="preserve">
<path style="fill:#C7CFE2;" d="M459.034,441.379H17.655C7.904,441.379,0,433.475,0,423.724v-8.828c0-4.875,3.953-8.828,8.828-8.828
	h459.034c4.875,0,8.828,3.953,8.828,8.828v8.828C476.69,433.475,468.786,441.379,459.034,441.379z"/>
<path style="fill:#AFB9D2;" d="M17.655,441.379h441.379c9.75,0,17.655-7.905,17.655-17.655H0
	C0,433.474,7.905,441.379,17.655,441.379z"/>
<path style="fill:#959CB3;" d="M291.955,423.724h-71.908c-5.015,0-9.6-2.834-11.843-7.319l-5.169-10.336h105.931l-5.167,10.336
	C301.555,420.891,296.97,423.724,291.955,423.724z"/>
<path style="fill:#464655;" d="M441.379,123.586H35.31c-9.75,0-17.655,7.904-17.655,17.655v264.828h441.379V141.241
	C459.034,131.49,451.129,123.586,441.379,123.586z M432.552,379.586H44.138V150.069h388.414V379.586z"/>
<polygon style="fill:#EFF2FA;" points="432.552,150.069 432.552,379.586 44.138,379.586 158.897,264.828 238.345,344.276 "/>
<g>
	<rect x="150.069" y="273.655" style="fill:#E4EAF6;" width="17.655" height="105.931"/>
	<polygon style="fill:#E4EAF6;" points="88.276,379.586 70.621,379.586 70.621,353.103 88.276,335.448 	"/>
	<rect x="229.517" y="335.448" style="fill:#E4EAF6;" width="17.655" height="44.138"/>
	<polygon style="fill:#E4EAF6;" points="326.621,379.586 308.966,379.586 308.966,273.655 326.621,256 	"/>
	<polygon style="fill:#E4EAF6;" points="406.069,379.586 388.414,379.586 388.414,194.207 406.069,176.552 	"/>
</g>
<path style="fill:#FF6464;" d="M503.172,70.621h-61.793c-4.875,0-8.828,3.953-8.828,8.828c0,4.875,3.953,8.828,8.828,8.828h40.483
	L238.345,331.794l-73.207-73.207c-3.448-3.448-9.035-3.448-12.483,0L44.138,367.104v12.482h12.483l102.275-102.275l73.207,73.207
	c3.448,3.448,9.035,3.448,12.483,0l249.758-249.759v40.482c0,4.875,3.953,8.828,8.828,8.828c4.875,0,8.828-3.953,8.828-8.828V79.448
	C512,74.573,508.047,70.621,503.172,70.621z"/>
<g>
	<circle style="fill:#D2555A;" cx="158.897" cy="264.828" r="17.655"/>
	<circle style="fill:#D2555A;" cx="79.448" cy="344.276" r="17.655"/>
	<circle style="fill:#D2555A;" cx="238.345" cy="344.276" r="17.655"/>
	<circle style="fill:#D2555A;" cx="317.793" cy="264.828" r="17.655"/>
	<circle style="fill:#D2555A;" cx="397.241" cy="185.379" r="17.655"/>
</g>
<g>
</g>
<g>
</g>
<g>
</g>
<g>
</g>
<g>
</g>
<g>
</g>
<g>
</g>
<g>
</g>
<g>
</g>
<g>
</g>
<g>
</g>
<g>
</g>
<g>
</g>
<g>
</g>
<g>
</g>
</svg>
